<svg xmlns="http://www.w3.org/2000/svg">
  <symbol id="mic-on" viewBox="0 0 640 640">
    <path d="M320 64C267 64 224 107 224 160L224 288C224 341 267 384 320 384C373 384 416 341 416 288L416 160C416 107 373 64 320 64zM176 248C176 234.7 165.3 224 152 224C138.7 224 128 234.7 128 248L128 288C128 385.9 201.3 466.7 296 478.5L296 528L248 528C234.7 528 224 538.7 224 552C224 565.3 234.7 576 248 576L392 576C405.3 576 416 565.3 416 552C416 538.7 405.3 528 392 528L344 528L344 478.5C438.7 466.7 512 385.9 512 288L512 248C512 234.7 501.3 224 488 224C474.7 224 464 234.7 464 248L464 288C464 367.5 399.5 432 320 432C240.5 432 176 367.5 176 288L176 248z"/>
  </symbol>

  <symbol id="mic-off" viewBox="0 0 640 640">
    <path d="M73 39.1C63.6 29.7 48.4 29.7 39.1 39.1C29.8 48.5 29.7 63.7 39 73.1L567 601.1C576.4 610.5 591.6 610.5 600.9 601.1C610.2 591.7 610.3 576.5 600.9 567.2L456.7 422.8C490.9 388.2 512 340.6 512 288L512 248C512 234.7 501.3 224 488 224C474.7 224 464 234.7 464 248L464 288C464 327.3 448.3 362.9 422.7 388.9L388.8 355C405.6 337.7 416 314 416 288L416 160C416 107 373 64 320 64C267 64 224 107 224 160L224 190.2L73 39.2zM371.3 473.1L329.9 431.7C326.6 431.9 323.4 432 320.1 432C240.6 432 176.1 367.5 176.1 288L176.1 277.8L132.5 234.2C129.7 238.1 128.1 242.9 128.1 248L128.1 288C128.1 385.9 201.4 466.7 296.1 478.5L296.1 528L248.1 528C234.8 528 224.1 538.7 224.1 552C224.1 565.3 234.8 576 248.1 576L392.1 576C405.4 576 416.1 565.3 416.1 552C416.1 538.7 405.4 528 392.1 528L344.1 528L344.1 478.5C353.4 477.3 362.5 475.5 371.4 473.1z"/>
  </symbol>

  <symbol id="cam-on" viewBox="0 0 640 640">
    <path d="M128 128C92.7 128 64 156.7 64 192L64 448C64 483.3 92.7 512 128 512L384 512C419.3 512 448 483.3 448 448L448 192C448 156.7 419.3 128 384 128L128 128zM496 400L569.5 458.8C573.7 462.2 578.9 464 584.3 464C597.4 464 608 453.4 608 440.3L608 199.7C608 186.6 597.4 176 584.3 176C578.9 176 573.7 177.8 569.5 181.2L496 240L496 400z"/>
  </symbol>

  <symbol id="cam-off" viewBox="0 0 640 640">
    <path d="M73 39.1C63.6 29.7 48.4 29.7 39.1 39.1C29.8 48.5 29.7 63.7 39 73.1L567 601.1C576.4 610.5 591.6 610.5 600.9 601.1C610.2 591.7 610.3 576.5 600.9 567.2L447.9 414.2L447.9 192C447.9 156.7 419.2 128 383.9 128L161.8 128L73 39.1zM64 192L64 448C64 483.3 92.7 512 128 512L384 512C391.8 512 399.3 510.6 406.2 508L68 169.8C65.4 176.7 64 184.2 64 192zM496 400L569.5 458.8C573.7 462.2 578.9 464 584.3 464C597.4 464 608 453.4 608 440.3L608 199.7C608 186.6 597.4 176 584.3 176C578.9 176 573.7 177.8 569.5 181.2L496 240L496 400z"/>
  </symbol>

  <symbol id="unmuted" viewBox="0 0 640 640">
    <path d="M112 416L160 416L294.1 535.2C300.5 540.9 308.7 544 317.2 544C336.4 544 352 528.4 352 509.2L352 130.8C352 111.6 336.4 96 317.2 96C308.7 96 300.5 99.1 294.1 104.8L160 224L112 224C85.5 224 64 245.5 64 272L64 368C64 394.5 85.5 416 112 416zM505.1 171C494.8 162.6 479.7 164.2 471.3 174.5C462.9 184.8 464.5 199.9 474.8 208.3C507.3 234.7 528 274.9 528 320C528 365.1 507.3 405.3 474.8 431.8C464.5 440.2 463 455.3 471.3 465.6C479.6 475.9 494.8 477.4 505.1 469.1C548.3 433.9 576 380.2 576 320.1C576 260 548.3 206.3 505.1 171.1zM444.6 245.5C434.3 237.1 419.2 238.7 410.8 249C402.4 259.3 404 274.4 414.3 282.8C425.1 291.6 432 305 432 320C432 335 425.1 348.4 414.3 357.3C404 365.7 402.5 380.8 410.8 391.1C419.1 401.4 434.3 402.9 444.6 394.6C466.1 376.9 480 350.1 480 320C480 289.9 466.1 263.1 444.5 245.5z"/>
  </symbol>

  <symbol id="muted" viewBox="0 0 640 640">
    <path d="M80 416L128 416L262.1 535.2C268.5 540.9 276.7 544 285.2 544C304.4 544 320 528.4 320 509.2L320 130.8C320 111.6 304.4 96 285.2 96C276.7 96 268.5 99.1 262.1 104.8L128 224L80 224C53.5 224 32 245.5 32 272L32 368C32 394.5 53.5 416 80 416zM399 239C389.6 248.4 389.6 263.6 399 272.9L446 319.9L399 366.9C389.6 376.3 389.6 391.5 399 400.8C408.4 410.1 423.6 410.2 432.9 400.8L479.9 353.8L526.9 400.8C536.3 410.2 551.5 410.2 560.8 400.8C570.1 391.4 570.2 376.2 560.8 366.9L513.8 319.9L560.8 272.9C570.2 263.5 570.2 248.3 560.8 239C551.4 229.7 536.2 229.6 526.9 239L479.9 286L432.9 239C423.5 229.6 408.3 229.6 399 239z"/>
  </symbol>
</svg>
